<svg width="23" height="23" viewBox="0 0 23 23" fill="none" xmlns="http://www.w3.org/2000/svg">
<path fill-rule="evenodd" clip-rule="evenodd" d="M11.5654 2.59397C12.8329 2.58536 14.0897 2.82719 15.2635 3.30561C16.4397 3.78498 17.5093 4.4924 18.4108 5.3871C19.3124 6.28179 20.0279 7.34607 20.5161 8.51858C21.0044 9.69109 21.2558 10.9486 21.2558 12.2188V17.25C21.2558 17.8965 20.999 18.5165 20.5419 18.9736C20.0847 19.4307 19.4648 19.6875 18.8183 19.6875H17.3808C16.7343 19.6875 16.1143 19.4307 15.6572 18.9736C15.2001 18.5165 14.9433 17.8965 14.9433 17.25V13.6563C14.9433 13.0098 15.2001 12.3898 15.6572 11.9327C16.1143 11.4756 16.7343 11.2188 17.3808 11.2188H19.1899C19.1023 10.5564 18.9278 9.90693 18.6698 9.28745C18.283 8.35857 17.7162 7.51545 17.002 6.80666C16.2878 6.09788 15.4404 5.53745 14.5086 5.15769C13.5769 4.77793 12.5791 4.58634 11.573 4.59397H11.5578C10.5517 4.58634 9.55392 4.77793 8.62215 5.15769C7.69037 5.53745 6.84297 6.09788 6.12879 6.80666C5.41461 7.51545 4.84778 8.35857 4.46096 9.28745C4.20299 9.90693 4.02849 10.5564 3.94086 11.2188H5.75C6.39647 11.2188 7.01645 11.4756 7.47357 11.9327C7.93069 12.3898 8.1875 13.0098 8.1875 13.6563V17.25C8.1875 17.8965 7.93069 18.5165 7.47357 18.9736C7.01645 19.4307 6.39647 19.6875 5.75 19.6875H4.3125C3.66603 19.6875 3.04605 19.4307 2.58893 18.9736C2.13181 18.5165 1.875 17.8965 1.875 17.25V12.2188C1.875 10.9486 2.12638 9.69109 2.61466 8.51858C3.10293 7.34607 3.81844 6.28179 4.71995 5.3871C5.62145 4.4924 6.69112 3.78498 7.8673 3.30561C9.04114 2.82719 10.2979 2.58536 11.5654 2.59397ZM3.875 13.2188V17.25C3.875 17.366 3.92109 17.4773 4.00314 17.5594C4.08519 17.6414 4.19647 17.6875 4.3125 17.6875H5.75C5.86603 17.6875 5.97731 17.6414 6.05936 17.5594C6.14141 17.4773 6.1875 17.366 6.1875 17.25V13.6563C6.1875 13.5402 6.14141 13.4289 6.05936 13.3469C5.97731 13.2648 5.86603 13.2188 5.75 13.2188H3.875ZM19.2558 13.2188H17.3808C17.2648 13.2188 17.1535 13.2648 17.0714 13.3469C16.9894 13.4289 16.9433 13.5402 16.9433 13.6563V17.25C16.9433 17.366 16.9894 17.4773 17.0714 17.5594C17.1535 17.6414 17.2648 17.6875 17.3808 17.6875H18.8183C18.9343 17.6875 19.0456 17.6414 19.1277 17.5594C19.2097 17.4773 19.2558 17.366 19.2558 17.25V13.2188ZM11.5654 3.594V3.59403V3.594Z" fill="white"/>
</svg>
